<svg xmlns="http://www.w3.org/2000/svg" viewBox="0 0 1200 675" role="img" aria-label="Blog cover illustration">
  <defs>
    <linearGradient id="sky" x1="0" y1="0" x2="1" y2="1">
      <stop offset="0" stop-color="#d7f0ed"/>
      <stop offset="0.52" stop-color="#f7ddd1"/>
      <stop offset="1" stop-color="#f6f0dc"/>
    </linearGradient>
    <linearGradient id="paper" x1="0" y1="0" x2="0" y2="1">
      <stop offset="0" stop-color="#fffaf0"/>
      <stop offset="1" stop-color="#f2d9bc"/>
    </linearGradient>
    <filter id="softShadow" x="-20%" y="-20%" width="140%" height="140%">
      <feDropShadow dx="0" dy="16" stdDeviation="22" flood-color="#234b55" flood-opacity="0.18"/>
    </filter>
  </defs>
  <rect width="1200" height="675" fill="url(#sky)"/>
  <circle cx="1015" cy="128" r="82" fill="#ffd078" opacity="0.9"/>
  <path d="M0 487c136-92 267-92 393-1s263 94 411 10 280-84 396 6v173H0z" fill="#2d7777" opacity="0.18"/>
  <path d="M0 546c156-77 311-73 465 13s303 82 447-12 240-91 288-62v190H0z" fill="#1f6c72" opacity="0.28"/>
  <g filter="url(#softShadow)">
    <rect x="308" y="114" width="584" height="397" rx="22" fill="url(#paper)"/>
    <rect x="347" y="158" width="242" height="27" rx="13.5" fill="#2d7777" opacity="0.26"/>
    <rect x="347" y="217" width="420" height="17" rx="8.5" fill="#426b73" opacity="0.2"/>
    <rect x="347" y="257" width="344" height="17" rx="8.5" fill="#426b73" opacity="0.18"/>
    <rect x="347" y="297" width="470" height="17" rx="8.5" fill="#426b73" opacity="0.16"/>
    <rect x="347" y="337" width="292" height="17" rx="8.5" fill="#426b73" opacity="0.16"/>
    <path d="M689 380c-26-61 18-138 85-135 58 3 98 61 85 116-16 65-89 95-170 19z" fill="#e8997a" opacity="0.78"/>
    <path d="M719 388c25-38 52-63 92-87" fill="none" stroke="#fff7e6" stroke-width="9" stroke-linecap="round"/>
  </g>
  <path d="M163 471c58-48 122-71 194-68" fill="none" stroke="#386641" stroke-width="19" stroke-linecap="round" opacity="0.48"/>
  <path d="M909 480c42-45 91-70 147-74" fill="none" stroke="#b05f2c" stroke-width="18" stroke-linecap="round" opacity="0.42"/>
  <g opacity="0.38">
    <circle cx="174" cy="203" r="8" fill="#24777b"/>
    <circle cx="221" cy="249" r="5" fill="#b05f2c"/>
    <circle cx="992" cy="284" r="7" fill="#24777b"/>
    <circle cx="1046" cy="333" r="5" fill="#6f5bd6"/>
  </g>
</svg>
